Coordinates
version=1
nRows=22
nColumns=24
inDegrees=yes

Units are S.I. units (second, meters, Newtons, ...)
Angles are in degrees.

endheader
time	pelvis_tilt	pelvis_list	pelvis_rotation	pelvis_tx	pelvis_ty	pelvis_tz	hip_flexion_r	hip_adduction_r	hip_rotation_r	knee_angle_r	ankle_angle_r	subtalar_angle_r	mtp_angle_r	hip_flexion_l	hip_adduction_l	hip_rotation_l	knee_angle_l	ankle_angle_l	subtalar_angle_l	mtp_angle_l	lumbar_extension	lumbar_bending	lumbar_rotation
      1.10350000	     -1.53789377	      4.26689236	     -1.21177247	      0.12150692	      1.06062832	      0.28413690	     22.20846621	     -4.82283191	     -3.05516675	    -66.82527634	     -1.74563011	    -13.73430435	      7.96200634	     11.41239737	      8.12561452	      0.44325997	    -11.16756895	      0.21583742	     -8.99744430	      3.78634849	      2.20584146	     -1.42219316	      1.00302458
      1.10766667	     -1.54323479	      4.27209515	     -1.27473587	      0.12671187	      1.06112688	      0.28419487	     22.74015248	     -4.71064351	     -2.76842455	    -66.35819627	     -1.15212848	    -14.15833960	      7.89883178	     11.08746320	      8.13762094	      0.42989933	    -11.13920866	      0.44603002	     -9.02649482	      3.77254896	      2.19666272	     -1.44653313	      0.98520133
      1.11183333	     -1.55488203	      4.26143453	     -1.32953224	      0.13193402	      1.06162910	      0.28428457	     23.24781326	     -4.57300034	     -2.48510365	    -65.79705166	     -0.60197885	    -14.58653499	      7.81380229	     10.76663276	      8.12913536	      0.40502680	    -11.11389677	      0.67514988	     -9.03430901	      3.75241290	      2.17636601	     -1.47121379	      0.97246919
      1.11600000	     -1.54259950	      4.26988856	     -1.41924099	      0.13719443	      1.06216076	      0.28427280	     23.71366942	     -4.45872757	     -2.16631550	    -65.14999611	     -0.13534280	    -14.94792250	      7.75320037	     10.39475331	      8.15307171	      0.44289690	    -11.02310180	      0.86962723	     -9.04574644	      3.73858838	      2.18747817	     -1.43576149	      0.94940270
      1.12016667	     -1.53741785	      4.25502878	     -1.49060772	      0.14245763	      1.06267796	      0.28433396	     24.15307009	     -4.30938450	     -1.86292659	    -64.41541795	      0.35322204	    -15.34424336	      7.69070605	     10.03342265	      8.14388776	      0.43877501	    -10.94817150	      1.07930538	     -9.07690931	      3.72402837	      2.17660830	     -1.42826584	      0.93075146
      1.12433333	     -1.52654574	      4.24125052	     -1.56533400	      0.14770830	      1.06319344	      0.28439589	     24.56321102	     -4.15873548	     -1.55457390	    -63.60200771	      0.79233213	    -15.74427160	      7.62106651	      9.66215968	      8.13739192	      0.44148588	    -10.86367668	      1.28289537	     -9.09784534	      3.70745412	      2.15359420	     -1.41879751	      0.91234238
      1.12850000	     -1.51087330	      4.22546627	     -1.63999900	      0.15297935	      1.06370870	      0.28445129	     24.93847718	     -4.00431755	     -1.24435899	    -62.70438604	      1.18115076	    -16.13482248	      7.55043216	      9.27625411	      8.13068675	      0.44948119	    -10.75856732	      1.47529522	     -9.11685229	      3.69041057	      2.13469205	     -1.40510421	      0.89296607
      1.13266667	     -1.50038552	      4.20315068	     -1.71132835	      0.15827286	      1.06420837	      0.28452154	     25.28716757	     -3.84000437	     -0.93458727	    -61.72546249	      1.52799293	    -16.52222745	      7.48031833	      8.88993188	      8.11679722	      0.46252209	    -10.64794342	      1.66295928	     -9.14397376	      3.67330380	      2.12093203	     -1.38304050	      0.87179868
      1.13683333	     -1.49826777	      4.18714842	     -1.78135854	      0.16358588	      1.06466878	      0.28459557	     25.61935863	     -3.68263387	     -0.62552962	    -60.67756842	      1.83342637	    -16.91438196	      7.40725369	      8.50479052	      8.11125012	      0.48100473	    -10.52191419	      1.84435193	     -9.17349022	      3.65518009	      2.11248854	     -1.37058214	      0.85075493
      1.14100000	     -1.48292340	      4.16694016	     -1.84589825	      0.16889657	      1.06513417	      0.28468334	     25.90470774	     -3.52069294	     -0.32210230	    -59.54916255	      2.09615718	    -17.32271638	      7.32735682	      8.10050151	      8.10271703	      0.50166399	    -10.38361420	      2.02406072	     -9.20941692	      3.63482177	      2.09878130	     -1.35814796	      0.82584486
      1.14516667	     -1.48084052	      4.14697907	     -1.90572703	      0.17423756	      1.06556037	      0.28476276	     26.17448694	     -3.36142765	     -0.02082311	    -58.35093324	      2.30601383	    -17.70785769	      7.24954434	      7.70288794	      8.09586208	      0.53490824	    -10.23678945	      2.18847283	     -9.24860481	      3.61458076	      2.09053837	     -1.34233527	      0.79834905
      1.14933333	     -1.42906985	      4.11822425	     -1.95131905	      0.17948781	      1.06603197	      0.28491725	     26.36430847	     -3.19105645	      0.25494886	    -57.07873001	      2.41252423	    -18.41677220	      7.05898108	      7.26089682	      8.07592867	      0.53186748	    -10.10064183	      2.40644612	     -9.29040733	      3.56080953	      1.89909905	     -1.29647301	      0.73148901
      1.15350000	     -1.44603530	      4.10947202	     -1.99609440	      0.18489080	      1.06638459	      0.28496050	     26.59142825	     -3.05648629	      0.54401067	    -55.73985878	      2.51770373	    -18.60739070	      6.99492740	      6.86079235	      8.08920243	      0.62604688	     -9.90646539	      2.49947322	     -9.31157478	      3.54265625	      1.99656034	     -1.34214943	      0.71963211
      1.15766667	     -1.44941319	      4.09310459	     -2.04323762	      0.19032444	      1.06674156	      0.28507596	     26.76861786	     -2.90809494	      0.83009371	    -54.33353022	      2.63693049	    -18.94846567	      6.91104078	      6.44216476	      8.08922799	      0.67198839	     -9.71421849	      2.64974851	     -9.39131483	      3.51835111	      2.05090695	     -1.32294363	      0.68062282
      1.16183333	     -1.35520917	      4.06192993	     -2.04346370	      0.19558682	      1.06721002	      0.28517267	     26.81622501	     -2.76930428	      1.04200853	    -52.84711286	      2.44279005	    -19.75191009	      6.59390732	      5.93074320	      8.07970937	      0.77604488	     -9.53205230	      2.79155014	     -9.48343660	      3.41727906	      1.81268217	     -1.32782802	      0.55125739
      1.16600000	     -1.40929382	      4.06437399	     -2.08320053	      0.20104265	      1.06741207	      0.28529348	     26.99722092	     -2.64782418	      1.32084744	    -51.33305888	      2.55464736	    -19.87464465	      6.53112455	      5.55819390	      8.10116595	      0.83701450	     -9.31922157	      2.89302872	     -9.53906905	      3.39735589	      1.93072708	     -1.34863571	      0.53064721
      1.17016667	     -1.44746466	      4.06161456	     -2.10480697	      0.20651894	      1.06762377	      0.28541045	     27.12628453	     -2.53306844	      1.56658711	    -49.75330907	      2.60904340	    -20.09118963	      6.45778646	      5.16211386	      8.12067986	      0.91013243	     -9.09828970	      3.01713858	     -9.62965351	      3.37353205	      2.02808169	     -1.36013826	      0.49589834
      1.17433333	     -1.46596744	      4.05893223	     -2.11608961	      0.21202196	      1.06784401	      0.28550368	     27.20199082	     -2.43227139	      1.77743966	    -48.11523664	      2.57540851	    -20.37501030	      6.36679207	      4.73549259	      8.14374613	      0.99821344	     -8.86094477	      3.14007033	     -9.74141069	      3.34265178	      2.08985984	     -1.36522234	      0.44038902
      1.17850000	     -1.41854443	      4.03006276	     -2.08161843	      0.21739521	      1.06813636	      0.28557991	     27.17477829	     -2.32757685	      1.93488308	    -46.39476929	      2.25198855	    -20.98303213	      6.13315290	      4.24600390	      8.13980516	      1.16604696	     -8.63925385	      3.25688596	     -9.94696685	      3.25654654	      1.91689029	     -1.24472522	      0.25088945
      1.18266667	     -1.48729551	      4.06069147	     -2.07058147	      0.22283490	      1.06818007	      0.28574411	     27.26598015	     -2.26938587	      2.12629700	    -44.68674496	      2.28824283	    -21.05980582	      6.07208490	      3.88250056	      8.19126765	      1.25933105	     -8.41216190	      3.31226967	     -9.99483817	      3.23333320	      2.04721469	     -1.43264268	      0.24730494
      1.18683333	     -1.53712402	      4.06736871	     -2.05901035	      0.22838631	      1.06826164	      0.28588122	     27.29397863	     -2.19729944	      2.28661679	    -42.90923968	      2.21810081	    -21.17530526	      5.99479448	      3.47944071	      8.22002712	      1.36182194	     -8.16176448	      3.40716196	    -10.09741211	      3.20280569	      2.17452996	     -1.46749874	      0.19585221
      1.19100000	     -1.46357894	      4.03258536	     -1.94290858	      0.23379479	      1.06853062	      0.28583068	     27.14653072	     -2.15017627	      2.28558300	    -41.04837845	      1.82313912	    -21.60310180	      5.68608203	      2.95180243	      8.21682472	      1.61629093	     -7.92259466	      3.46716869	    -10.34905594	      3.06890413	      1.96023552	     -1.43896183	     -0.08486981
